<?xml version="1.0" standalone="no"?><!DOCTYPE svg PUBLIC "-//W3C//DTD SVG 1.1//EN" "http://www.w3.org/Graphics/SVG/1.1/DTD/svg11.dtd"><svg t="1672212163740" class="icon" viewBox="0 0 1024 1024" version="1.1" xmlns="http://www.w3.org/2000/svg" p-id="2939" xmlns:xlink="http://www.w3.org/1999/xlink" width="200" height="200"><path d="M864 960a31.86 31.86 0 0 1-10.94-1.93L544.81 846a96.21 96.21 0 0 0-65.62 0L170.94 958.07A32 32 0 0 1 128 928V224c0-88.22 71.78-160 160-160h448c88.22 0 160 71.78 160 160v704a32 32 0 0 1-32 32zM288 128a96.11 96.11 0 0 0-96 96v658.31l265.32-96.48a160.29 160.29 0 0 1 109.36 0L832 882.31V224a96.11 96.11 0 0 0-96-96z" fill="#2c2c2c" p-id="2940"></path><path d="M393.34 672a32 32 0 0 1-31.55-37.37L381.65 518l-84.07-82.6a32 32 0 0 1 17.78-54.5l116-17 51.92-106A32 32 0 0 1 512 240a32 32 0 0 1 28.74 17.92l51.91 106 116 17a32 32 0 0 1 17.78 54.49L642.35 518l19.86 116.66a32 32 0 0 1-46.53 33.64L512 613.35l-103.69 54.93a32 32 0 0 1-14.97 3.72z m-4.94-237.11l50 49.14a32 32 0 0 1 9.12 28.2l-11.73 69.07L497 548.86a32 32 0 0 1 30 0l61.23 32.43-11.76-69.07a32 32 0 0 1 9.12-28.2l50-49.13-68.89-10.09a32 32 0 0 1-24.11-17.59L512 344.75l-30.59 62.46a32 32 0 0 1-24.1 17.59z" fill="#2c2c2c" p-id="2941"></path></svg>