<?xml version="1.0" standalone="no"?><!DOCTYPE svg PUBLIC "-//W3C//DTD SVG 1.1//EN" "http://www.w3.org/Graphics/SVG/1.1/DTD/svg11.dtd"><svg t="1672199094755" class="icon" viewBox="0 0 1024 1024" version="1.1" xmlns="http://www.w3.org/2000/svg" p-id="2800" xmlns:xlink="http://www.w3.org/1999/xlink" width="200" height="200"><path d="M512 118.25C294.55859375 118.25 118.25 294.55859375 118.25 512s176.30859375 393.75 393.75 393.75 393.75-176.30859375 393.75-393.75S729.44140625 118.25 512 118.25z m344.53125 393.75c0 86.1328125-31.9921875 164.79492188-84.46289063 225.26367188L286.73632812 251.93164062C347.20507812 199.4609375 425.8671875 167.46875 512 167.46875c189.93164063 0 344.53125 154.59960938 344.53125 344.53125z m-689.0625 0c0-86.1328125 31.9921875-164.79492188 84.46289063-225.26367188l485.33203124 485.33203126C676.79492188 824.5390625 598.1328125 856.53125 512 856.53125c-189.93164063 0-344.53125-154.59960938-344.53125-344.53125z" fill="#2c2c2c" p-id="2801"></path></svg>