<?xml version="1.0" standalone="no"?><!DOCTYPE svg PUBLIC "-//W3C//DTD SVG 1.1//EN" "http://www.w3.org/Graphics/SVG/1.1/DTD/svg11.dtd"><svg t="1670493169885" class="icon" viewBox="0 0 1024 1024" version="1.1" xmlns="http://www.w3.org/2000/svg" p-id="2865" xmlns:xlink="http://www.w3.org/1999/xlink" width="200" height="200"><path d="M160 128h704a32 32 0 1 1 0 64H160a32 32 0 0 1 0-64z m192 224h320a32 32 0 1 1 0 64H352a32 32 0 1 1 0-64z m512 256H160a32 32 0 1 0 0 64h704a32 32 0 1 0 0-64z m-512 224h320a32 32 0 1 1 0 64H352a32 32 0 1 1 0-64z" fill="#2c2c2c" p-id="2866"></path></svg>