<?xml version="1.0" standalone="no"?><!DOCTYPE svg PUBLIC "-//W3C//DTD SVG 1.1//EN" "http://www.w3.org/Graphics/SVG/1.1/DTD/svg11.dtd"><svg t="1671173918006" class="icon" viewBox="0 0 1024 1024" version="1.1" xmlns="http://www.w3.org/2000/svg" p-id="2685" xmlns:xlink="http://www.w3.org/1999/xlink" width="200" height="200"><path d="M512 64c94.4 0 168.16 21.568 218.4 67.52C781.44 178.24 800 242.464 800 309.376c0 69.952-31.68 126.592-77.6 166.144 24.128 12 45.28 27.84 63.136 47.36C829.76 571.36 848 636.256 848 704c0 67.456-17.632 132.416-61.664 180.992-42.88 47.232-105.024 72.736-182.432 74.88l-10.656 0.128H240a48 48 0 0 1-47.776-43.392L192 912v-800a48 48 0 0 1 43.392-47.776L240 64H512z m81.248 480H288v320h305.248c62.016 0 99.456-18.72 121.952-43.52 23.264-25.6 36.8-64.64 36.8-116.48 0-51.52-13.824-90.592-37.344-116.384-22.848-24.992-60.48-43.616-121.408-43.616zM512 160H288v288h241.792c45.44 0 90.464-14.624 123.104-39.648 31.808-24.416 51.104-57.76 51.104-98.976 0-49.728-13.44-84.16-38.4-107.008C639.84 178.784 593.568 160 512 160z" fill="#2c2c2c" p-id="2686"></path></svg>